<?xml version="1.0" standalone="no"?>
<!DOCTYPE svg PUBLIC "-//W3C//DTD SVG 20010904//EN"
 "http://www.w3.org/TR/2001/REC-SVG-20010904/DTD/svg10.dtd">
<svg version="1.0" xmlns="http://www.w3.org/2000/svg"
 width="1000.000000pt" height="1000.000000pt" viewBox="0 0 1000.000000 1000.000000"
 preserveAspectRatio="xMidYMid meet">
<metadata>
Created by potrace 1.14, written by Peter Selinger 2001-2017
</metadata>
<g transform="translate(0.000000,1000.000000) scale(0.100000,-0.100000)"
fill="#000000" stroke="none">
<path d="M4938 7964 c-2 -1 -42 -5 -88 -8 -47 -3 -94 -7 -105 -10 -11 -2 -45
-7 -75 -11 -30 -4 -64 -9 -75 -11 -11 -2 -33 -7 -50 -10 -88 -15 -329 -79
-385 -101 -8 -3 -19 -7 -25 -8 -5 -2 -56 -21 -112 -44 -285 -114 -527 -255
-771 -450 -99 -79 -306 -278 -377 -361 -98 -115 -207 -263 -292 -396 -152
-238 -292 -576 -363 -879 -58 -247 -75 -398 -75 -675 0 -171 10 -374 20 -390
2 -3 6 -30 10 -60 25 -203 104 -481 200 -705 314 -734 932 -1328 1665 -1602
30 -12 73 -28 96 -36 48 -18 208 -66 244 -73 13 -3 60 -14 105 -24 72 -17 167
-32 365 -59 72 -9 529 -7 600 3 25 4 77 11 115 17 194 28 486 103 602 155 17
8 34 14 37 14 19 0 212 93 329 160 159 89 222 132 362 246 459 374 769 889
900 1499 25 119 33 163 41 240 3 28 7 57 9 65 23 88 23 591 0 770 -2 14 -4 30
-4 35 -1 14 -2704 15 -2712 0 -3 -5 -6 -190 -5 -410 l1 -400 889 -3 888 -2 -6
-98 c-5 -86 -17 -176 -30 -237 -14 -61 -49 -171 -57 -180 -5 -5 -9 -15 -9 -23
0 -14 -61 -140 -96 -198 -134 -223 -375 -438 -627 -558 -143 -69 -316 -128
-442 -151 -16 -3 -70 -13 -120 -22 -154 -29 -580 -24 -740 8 -259 52 -431 111
-635 216 -72 38 -274 165 -290 182 -3 3 -27 24 -55 45 -82 65 -257 248 -332
347 -195 261 -336 587 -378 879 -4 24 -8 47 -10 50 -6 9 -18 211 -19 295 -1
388 112 780 321 1104 141 219 380 471 548 577 17 10 32 21 35 24 3 3 23 17 45
31 243 158 526 264 840 314 116 18 412 13 530 -10 152 -29 208 -43 325 -82
123 -41 367 -152 480 -219 144 -85 345 -236 456 -345 l52 -50 43 63 c24 35
138 204 253 376 l209 312 -62 58 c-377 342 -878 606 -1396 736 -121 30 -241
53 -321 61 -33 3 -70 8 -84 11 -28 6 -387 13 -392 8z"/>
</g>
</svg>
